<svg width="180" height="168" viewBox="0 0 180 168" fill="none" xmlns="http://www.w3.org/2000/svg">
<path d="M108 135.87V142.628L114.235 140.022C124.588 135.696 132 129.503 132 120.4V89.6C132 81.4374 126.33 75.7025 117.851 71.5573L117.837 71.5502L117.822 71.5432C111.742 68.6248 105.281 66.8004 98.4668 65.9904C101.37 64.9171 104.052 63.2893 106.329 61.1641C110.719 57.0661 113.25 51.4389 113.25 45.5C113.25 39.5611 110.719 33.9339 106.329 29.8359L103.258 33.1256L106.329 29.8359C101.948 25.7476 96.0699 23.5 90 23.5C83.9301 23.5 78.0516 25.7476 73.6713 29.8359C69.2806 33.9339 66.75 39.5611 66.75 45.5C66.75 51.4389 69.2806 57.0661 73.6713 61.1641C75.9483 63.2893 78.6301 64.9171 81.5332 65.9904C74.7193 66.8004 68.2577 68.6248 62.1777 71.5432L62.1631 71.5502L62.1486 71.5573C53.6698 75.7025 48 81.4374 48 89.6V120.4C48 128.617 53.9616 134.632 62.872 138.641C71.6407 142.619 80.6738 144.5 90 144.5H90.1678L90.3351 144.488L97.8351 143.928L102 143.617V139.44V125.37V120.476L97.1233 120.886L89.815 121.5C85.2326 121.485 80.6559 120.904 76.1832 119.742C76.6567 119.501 77.1843 119.252 77.7719 118.996L77.7847 118.99L77.7974 118.984C81.6003 117.3 85.6228 116.5 90 116.5C94.7943 116.5 99.1754 117.426 103.254 119.508L103.374 119.569L103.496 119.623C107.664 121.446 108 123.074 108 123.69V135.87ZM62.9214 144.474L61.2987 148.672L62.9214 144.474C54.3449 141.159 46.5714 136.306 40.0374 130.208C26.8466 117.896 19.5 101.268 19.5 84C19.5 66.7324 26.8466 50.1037 40.0374 37.7923C53.2387 25.4711 71.2059 18.5 90 18.5C99.2997 18.5 108.502 20.2099 117.079 23.5257C125.655 26.8414 133.429 31.6939 139.963 37.7923C146.496 43.8901 151.661 51.1122 155.178 59.0376C158.695 66.962 160.5 75.4432 160.5 84C160.5 101.268 153.153 117.896 139.963 130.208C126.761 142.529 108.794 149.5 90 149.5C80.7003 149.5 71.4982 147.79 62.9214 144.474ZM90 88.5C91.8866 88.5 93.6387 89.2024 94.8845 90.3651C96.1199 91.5181 96.75 93.0128 96.75 94.5C96.75 95.9872 96.1199 97.4819 94.8845 98.6349C93.6387 99.7977 91.8866 100.5 90 100.5C88.1134 100.5 86.3613 99.7977 85.1155 98.6349C83.8801 97.4819 83.25 95.9872 83.25 94.5C83.25 93.0128 83.8801 91.5181 85.1155 90.3651C86.3613 89.2024 88.1134 88.5 90 88.5Z" stroke="#FF7B19" stroke-width="9"/>
</svg>
