<svg width="62" height="62" viewBox="0 0 62 62" fill="none" xmlns="http://www.w3.org/2000/svg">
<circle cx="31.1338" cy="31.147" r="29" stroke="#FEFEFE" stroke-width="3"/>
<path d="M34.2798 12.6526L34.2798 22.6921C34.2798 22.8328 45.096 22.6921 45.096 22.6921L45.096 12.6526H34.2798Z" stroke="white" stroke-width="2.6"/>
<path d="M48.7253 29.0982C48.7253 34.0576 44.9121 37.9682 40.3403 37.9682C35.7685 37.9682 31.9553 34.0576 31.9553 29.0982C31.9553 24.1389 35.7685 20.2282 40.3403 20.2282C44.9121 20.2282 48.7253 24.1389 48.7253 29.0982Z" fill="black" stroke="white" stroke-width="2.6"/>
<path d="M13.5566 24.4399V40.8178C13.5566 38.7557 23.9914 37.745 23.9914 31.9116V24.4399H13.5566Z" stroke="white" stroke-width="2.6"/>
<path d="M30.3337 41.9888C30.3337 46.9482 26.5205 50.8588 21.9487 50.8588C17.3769 50.8588 13.5637 46.9482 13.5637 41.9888C13.5637 37.0295 17.3769 33.1188 21.9487 33.1188C26.5205 33.1188 30.3337 37.0295 30.3337 41.9888Z" fill="black" stroke="white" stroke-width="2.6"/>
</svg>
