<svg width="121" height="139" viewBox="0 0 121 139" fill="none" xmlns="http://www.w3.org/2000/svg">
<g filter="url(#filter0_d_60_162)">
<path d="M35.1095 78.6744C16.8514 62.6177 8.55377 38.4842 11.6141 18.7747C20.8433 34.4582 30.5361 34.705 43.9338 19.1706L49.6565 22.9176C42.7208 44.7729 40.4167 56.3763 47.0923 78.1184C37.764 72.4136 35.7608 59.411 31.9463 54.1002C31.8689 68.7146 33.2833 73.0618 35.0652 78.5383L35.1095 78.6744Z" fill="#FF7B19"/>
</g>
<g filter="url(#filter1_d_60_162)">
<path d="M52.4679 78.2026C57.3225 59.1014 63.1765 38.884 37.6187 0.185547C52.8963 3.65854 69.7445 53.2719 90.4478 16.558C83.8799 54.8843 81.3098 62.8224 65.6038 77.2103C66.5697 68.1091 67.2142 63.0031 68.4594 53.892C63.6049 64.4349 58.8931 73.9855 52.4679 78.2026Z" fill="#FF7B19"/>
</g>
<ellipse cx="26.0119" cy="18.1268" rx="6.61733" ry="6.27015" fill="#D9D9D9"/>
<ellipse cx="73.2682" cy="16.7528" rx="6.61733" ry="6.27015" fill="#D9D9D9"/>
<defs>
<filter id="filter0_d_60_162" x="0.992188" y="18.7747" width="78.6646" height="119.9" filterUnits="userSpaceOnUse" color-interpolation-filters="sRGB">
<feFlood flood-opacity="0" result="BackgroundImageFix"/>
<feColorMatrix in="SourceAlpha" type="matrix" values="0 0 0 0 0 0 0 0 0 0 0 0 0 0 0 0 0 0 127 0" result="hardAlpha"/>
<feOffset dx="10" dy="40"/>
<feGaussianBlur stdDeviation="10"/>
<feComposite in2="hardAlpha" operator="out"/>
<feColorMatrix type="matrix" values="0 0 0 0 0 0 0 0 0 0 0 0 0 0 0 0 0 0 0.4 0"/>
<feBlend mode="normal" in2="BackgroundImageFix" result="effect1_dropShadow_60_162"/>
<feBlend mode="normal" in="SourceGraphic" in2="effect1_dropShadow_60_162" result="shape"/>
</filter>
<filter id="filter1_d_60_162" x="27.6187" y="0.185547" width="92.8291" height="138.017" filterUnits="userSpaceOnUse" color-interpolation-filters="sRGB">
<feFlood flood-opacity="0" result="BackgroundImageFix"/>
<feColorMatrix in="SourceAlpha" type="matrix" values="0 0 0 0 0 0 0 0 0 0 0 0 0 0 0 0 0 0 127 0" result="hardAlpha"/>
<feOffset dx="10" dy="40"/>
<feGaussianBlur stdDeviation="10"/>
<feComposite in2="hardAlpha" operator="out"/>
<feColorMatrix type="matrix" values="0 0 0 0 0 0 0 0 0 0 0 0 0 0 0 0 0 0 0.4 0"/>
<feBlend mode="normal" in2="BackgroundImageFix" result="effect1_dropShadow_60_162"/>
<feBlend mode="normal" in="SourceGraphic" in2="effect1_dropShadow_60_162" result="shape"/>
</filter>
</defs>
</svg>
