<svg width="24" height="23" viewBox="0 0 24 23" fill="none" xmlns="http://www.w3.org/2000/svg">
<rect width="24" height="23" fill="#FE0808"/>
<g clip-path="url(#clip0_0_1)">
<rect width="1440" height="8315.55" transform="translate(-1250.37 -8230)" fill="#F7F7F7"/>
<rect width="1440" height="678" transform="translate(-1250.37 -592)" fill="#0C0C0C"/>
<circle cx="11.6328" cy="12" r="20" fill="#FF7B19"/>
<path d="M16.3254 3.11443C17.4364 3.11775 18.501 3.56058 19.2866 4.3462C20.0722 5.13183 20.5151 6.19641 20.5184 7.30744V15.6926C20.5151 16.8036 20.0722 17.8682 19.2866 18.6538C18.501 19.4394 17.4364 19.8822 16.3254 19.8856H7.94025C6.82922 19.8822 5.76464 19.4394 4.97901 18.6538C4.19339 17.8682 3.75056 16.8036 3.74725 15.6926V7.30744C3.75056 6.19641 4.19339 5.13183 4.97901 4.3462C5.76464 3.56058 6.82922 3.11775 7.94025 3.11443H16.3254ZM16.3254 1.4375H7.94025C4.71172 1.4375 2.07031 4.07891 2.07031 7.30744V15.6926C2.07031 18.9211 4.71172 21.5625 7.94025 21.5625H16.3254C19.5539 21.5625 22.1953 18.9211 22.1953 15.6926V7.30744C22.1953 4.07891 19.5539 1.4375 16.3254 1.4375Z" fill="black"/>
<path d="M17.5832 7.30737C17.3344 7.30737 17.0912 7.2336 16.8844 7.09539C16.6775 6.95718 16.5163 6.76074 16.4211 6.5309C16.3259 6.30107 16.301 6.04817 16.3495 5.80417C16.3981 5.56018 16.5179 5.33606 16.6938 5.16015C16.8697 4.98424 17.0938 4.86445 17.3378 4.81592C17.5818 4.76738 17.8347 4.79229 18.0645 4.88749C18.2944 4.98269 18.4908 5.14391 18.629 5.35076C18.7672 5.5576 18.841 5.80079 18.841 6.04956C18.8414 6.21484 18.8091 6.37856 18.746 6.53132C18.6829 6.68409 18.5903 6.82289 18.4734 6.93976C18.3565 7.05663 18.2177 7.14927 18.0649 7.21235C17.9122 7.27544 17.7485 7.30773 17.5832 7.30737ZM12.1328 8.14562C12.7962 8.14562 13.4448 8.34234 13.9964 8.71092C14.548 9.0795 14.9779 9.60337 15.2318 10.2163C15.4857 10.8292 15.5521 11.5037 15.4227 12.1543C15.2933 12.805 14.9738 13.4027 14.5047 13.8718C14.0356 14.3409 13.4379 14.6604 12.7872 14.7898C12.1365 14.9192 11.4621 14.8528 10.8492 14.5989C10.2363 14.345 9.71238 13.9151 9.3438 13.3635C8.97523 12.8119 8.7785 12.1634 8.7785 11.4999C8.77945 10.6106 9.13316 9.75797 9.76201 9.12912C10.3909 8.50027 11.2435 8.14657 12.1328 8.14562ZM12.1328 6.46868C11.1377 6.46868 10.165 6.76376 9.3376 7.3166C8.51022 7.86944 7.86535 8.65522 7.48455 9.57456C7.10374 10.4939 7.00411 11.5055 7.19824 12.4815C7.39237 13.4574 7.87155 14.3539 8.57518 15.0576C9.27882 15.7612 10.1753 16.2404 11.1513 16.4345C12.1272 16.6286 13.1388 16.529 14.0582 16.1482C14.9775 15.7674 15.7633 15.1225 16.3161 14.2951C16.869 13.4678 17.1641 12.495 17.1641 11.4999C17.1641 10.1656 16.634 8.88584 15.6904 7.9423C14.7469 6.99876 13.4672 6.46868 12.1328 6.46868Z" fill="black"/>
</g>
<defs>
<clipPath id="clip0_0_1">
<rect width="1440" height="8315.55" fill="white" transform="translate(-1250.37 -8230)"/>
</clipPath>
</defs>
</svg>
