<svg width="19" height="20" viewBox="0 0 19 20" fill="none" xmlns="http://www.w3.org/2000/svg">
<path d="M12.9634 2.7082C13.8812 2.71109 14.7607 3.09616 15.4097 3.77931C16.0587 4.46246 16.4245 5.38818 16.4272 6.3543V13.6457C16.4245 14.6118 16.0587 15.5375 15.4097 16.2207C14.7607 16.9038 13.8812 17.2889 12.9634 17.2918H6.03658C5.11877 17.2889 4.23933 16.9038 3.59034 16.2207C2.94135 15.5375 2.57553 14.6118 2.57279 13.6457V6.3543C2.57553 5.38818 2.94135 4.46246 3.59034 3.77931C4.23933 3.09616 5.11877 2.71109 6.03658 2.7082H12.9634ZM12.9634 1.25H6.03658C3.36953 1.25 1.1875 3.54687 1.1875 6.3543V13.6457C1.1875 16.4531 3.36953 18.75 6.03658 18.75H12.9634C15.6305 18.75 17.8125 16.4531 17.8125 13.6457V6.3543C17.8125 3.54687 15.6305 1.25 12.9634 1.25Z" fill="#FF7B19"/>
<path d="M14.0025 6.35352C13.797 6.35352 13.5961 6.28937 13.4252 6.16919C13.2543 6.049 13.1212 5.87818 13.0425 5.67833C12.9639 5.47847 12.9433 5.25855 12.9834 5.04639C13.0235 4.83422 13.1224 4.63933 13.2678 4.48637C13.4131 4.3334 13.5982 4.22923 13.7998 4.18703C14.0013 4.14483 14.2102 4.16649 14.4001 4.24927C14.59 4.33206 14.7523 4.47224 14.8664 4.65211C14.9806 4.83198 15.0415 5.04344 15.0415 5.25977C15.0418 5.40349 15.0152 5.54585 14.963 5.67869C14.9109 5.81153 14.8344 5.93223 14.7379 6.03385C14.6413 6.13548 14.5267 6.21603 14.4005 6.27089C14.2743 6.32575 14.139 6.35382 14.0025 6.35352ZM9.5 7.08242C10.048 7.08242 10.5838 7.25349 11.0395 7.57399C11.4951 7.89449 11.8503 8.35003 12.06 8.88301C12.2698 9.41598 12.3246 10.0025 12.2177 10.5683C12.1108 11.1341 11.8469 11.6538 11.4594 12.0617C11.0718 12.4696 10.5781 12.7474 10.0406 12.86C9.50308 12.9725 8.94593 12.9148 8.4396 12.694C7.93328 12.4732 7.50051 12.0994 7.19604 11.6197C6.89156 11.14 6.72904 10.5761 6.72904 9.99922C6.72983 9.22589 7.02202 8.48447 7.54151 7.93765C8.06099 7.39082 8.76534 7.08325 9.5 7.08242ZM9.5 5.62422C8.67797 5.62422 7.8744 5.88081 7.19091 6.36154C6.50742 6.84227 5.9747 7.52555 5.66013 8.32498C5.34555 9.12441 5.26324 10.0041 5.42361 10.8527C5.58398 11.7014 5.97983 12.481 6.56109 13.0928C7.14235 13.7047 7.88292 14.1213 8.68916 14.2902C9.49539 14.459 10.3311 14.3723 11.0905 14.0412C11.85 13.7101 12.4991 13.1493 12.9558 12.4298C13.4125 11.7104 13.6563 10.8645 13.6563 9.99922C13.6563 8.8389 13.2184 7.7261 12.4389 6.90563C11.6595 6.08516 10.6023 5.62422 9.5 5.62422Z" fill="#FF7B19"/>
</svg>
