<svg width="199" height="125" viewBox="0 0 199 125" fill="none" xmlns="http://www.w3.org/2000/svg">
<path d="M113.883 45.8671L117.434 50.4285L120.984 45.8671C125.817 39.6598 133.782 35.5 142.931 35.5C158.126 35.5 169.809 46.7732 169.809 59.9249C169.809 61.7745 169.555 63.5914 169.097 65.3814L169.054 65.5511L169.024 65.7236C167.078 76.8799 159.2 88.8908 148.745 99.188C138.825 108.958 127.145 116.633 117.433 120.229C107.72 116.633 96.0402 108.958 86.1202 99.1876C75.6653 88.8902 67.7852 76.8782 65.8369 65.7197L65.808 65.5539L65.7668 65.3908C65.3121 63.5923 65.0581 61.7716 65.0581 59.9249C65.0581 46.7708 76.7403 35.5 91.939 35.5C101.085 35.5 109.05 39.6596 113.883 45.8671Z" stroke="#FF7B19" stroke-width="9"/>
<path d="M173.153 6.7639L175.086 9.12134L177.019 6.7639C178.871 4.50606 181.977 2.93896 185.605 2.93896C191.696 2.93896 196.048 7.19402 196.048 11.7665C196.048 12.4101 195.955 13.0495 195.783 13.6897L195.756 13.7882L195.738 13.8885C194.981 18.0108 191.87 22.5775 187.598 26.5722C183.623 30.289 178.963 33.2089 175.086 34.611C171.209 33.2089 166.549 30.289 162.574 26.572C158.301 22.5773 155.19 18.0101 154.432 13.8868L154.414 13.7904L154.389 13.6957C154.217 13.0506 154.124 12.4089 154.124 11.7665C154.124 7.19317 158.476 2.93896 164.569 2.93896C168.196 2.93896 171.302 4.50596 173.153 6.7639Z" stroke="#FF7B19" stroke-width="5"/>
</svg>
