<svg width="93" height="67" viewBox="0 0 93 67" fill="none" xmlns="http://www.w3.org/2000/svg">
<path d="M29.6675 66.985C20.8608 57.8554 16.8585 44.1337 18.3346 32.9272C22.7863 41.8445 27.4615 41.9849 33.9238 33.1523L36.6841 35.2829C33.3388 47.7093 32.2274 54.3067 35.4473 66.6688C30.9479 63.4252 29.9817 56.0322 28.1418 53.0126C28.1044 61.322 28.7866 63.7937 29.6461 66.9076L29.6675 66.985Z" fill="#01B075"/>
<path d="M44.8176 50.09C47.009 52.3243 47.6496 56.89 48.5326 66.4957C52.4748 58.9296 53.6955 45.8237 52.0526 34.7362C48.5908 20.2937 39.6761 20.3316 33.9023 33.1799L36.6421 35.287C35.9924 45.1556 38.6995 63.7841 40.2696 66.9997C41.5112 57.8322 42.5243 54.0258 44.8176 50.09Z" fill="#245235"/>
<path d="M54.0404 66.7167C56.3819 55.8562 59.2056 44.361 46.8779 22.3579C54.247 24.3326 62.3736 52.5416 72.3597 31.6669C69.1917 53.4584 67.952 57.9719 60.3764 66.1525C60.8423 60.9777 61.1531 58.0746 61.7538 52.8943C59.4122 58.8887 57.1395 64.3189 54.0404 66.7167Z" fill="#FF7B19"/>
<path d="M47.2205 0.34375C32.4528 8.36971 2.60215 24.7153 1.34045 25.8898L0.361328 31.4352L47.2205 3.95212L92.9432 27.9222L92.742 23.4673L47.2205 0.34375Z" fill="#01B075"/>
<ellipse cx="25.2792" cy="33.0776" rx="3.19182" ry="3.04609" fill="#01B075"/>
<ellipse cx="64.0732" cy="32.4101" rx="3.19182" ry="3.04609" fill="#FF7B19"/>
<ellipse cx="44.9842" cy="18.0696" rx="4.2454" ry="4.10276" fill="#245235"/>
</svg>
