<svg width="163" height="198" viewBox="0 0 163 198" fill="none" xmlns="http://www.w3.org/2000/svg">
<rect width="163" height="198" fill="#FE0808"/>
<g clip-path="url(#clip0_0_1)">
<rect width="1440" height="8267" transform="translate(-142 -1332)" fill="#F7F7F7"/>
<g filter="url(#filter0_d_0_1)">
<rect x="-51.6387" width="1259.36" height="414" fill="#245235"/>
</g>
<g clip-path="url(#clip1_0_1)">
<path d="M162.5 144.5C163.279 144.197 164.156 144.192 164.94 144.485C165.723 144.778 166.347 145.346 166.676 146.064C167.005 146.782 167.011 147.591 166.692 148.312C166.374 149.034 165.757 149.61 164.979 149.913C164.2 150.216 163.322 150.221 162.539 149.927C161.756 149.634 161.131 149.066 160.803 148.348C160.474 147.63 160.468 146.822 160.786 146.1C161.105 145.378 161.721 144.803 162.5 144.5ZM154.238 126.457C156.809 125.457 159.569 124.934 162.36 124.917C165.15 124.9 167.917 125.39 170.502 126.358C173.087 127.326 175.44 128.755 177.426 130.561C179.413 132.367 180.993 134.517 182.078 136.886C184.269 141.671 184.308 147.063 182.186 151.874C180.064 156.686 175.954 160.523 170.762 162.543C168.191 163.542 165.431 164.066 162.641 164.083C159.85 164.1 157.083 163.61 154.498 162.642C149.277 160.686 145.113 156.899 142.922 152.113C140.731 147.328 140.692 141.937 142.814 137.125C144.937 132.314 149.046 128.476 154.238 126.457ZM165.805 151.717C167.214 151.169 168.67 150.922 170.212 151.066C171.713 151.12 172.67 151.598 173.058 152.446L174.495 155.585C176.623 153.483 177.312 151.663 176.585 150.075L172.95 142.136C172.289 140.693 170.773 139.901 168.263 139.708C165.761 139.533 163.295 139.94 160.848 140.891C158.4 141.843 156.364 143.188 154.754 144.961C153.153 146.753 152.711 148.307 153.372 149.75L157.007 157.689C157.668 159.132 159.276 159.974 161.867 160.092C164.439 160.219 166.838 159.817 169.109 158.934L171.001 158.028L169.341 154.402L167.457 155.325C165.499 156.087 163.376 156.487 161.178 156.471C161.09 155.676 161.539 154.842 162.482 153.88C163.406 152.926 164.513 152.219 165.805 151.717ZM155.891 130.066C154.593 130.57 153.565 131.53 153.035 132.733C152.504 133.936 152.514 135.283 153.062 136.48C153.609 137.676 154.65 138.623 155.956 139.112C157.261 139.601 158.723 139.592 160.022 139.087C161.32 138.582 162.347 137.623 162.878 136.42C163.408 135.217 163.398 133.869 162.851 132.673C162.303 131.477 161.262 130.53 159.957 130.041C158.651 129.552 157.189 129.561 155.891 130.066Z" fill="#061501" fill-opacity="0.5"/>
</g>
<g clip-path="url(#clip2_0_1)">
<path d="M2.50005 36.5002C3.27892 36.1715 4.15646 36.1657 4.93961 36.484C5.72276 36.8024 6.34737 37.4188 6.67604 38.1977C7.00471 38.9765 7.01051 39.8541 6.69217 40.6372C6.37383 41.4204 5.75742 42.045 4.97855 42.3736C4.19968 42.7023 3.32215 42.7081 2.539 42.3898C1.75585 42.0714 1.13124 41.455 0.802566 40.6762C0.473898 39.8973 0.468094 39.0198 0.786436 38.2366C1.10478 37.4535 1.72118 36.8288 2.50005 36.5002ZM-5.7616 16.9219C-3.19055 15.837 -0.430981 15.2691 2.35955 15.2506C5.15007 15.2322 7.91691 15.7636 10.5021 16.8144C13.0873 17.8652 15.4401 19.415 17.4264 21.3751C19.4126 23.3353 20.9934 25.6675 22.0783 28.2385C24.2694 33.431 24.3081 39.2812 22.1858 44.5022C20.0636 49.7232 15.9542 53.8873 10.7617 56.0784C8.19066 57.1634 5.43109 57.7313 2.64056 57.7497C-0.149967 57.7682 -2.91681 57.2368 -5.50198 56.186C-10.723 54.0637 -14.8871 49.9543 -17.0782 44.7618C-19.2693 39.5694 -19.308 33.7191 -17.1857 28.4981C-15.0635 23.2772 -10.9541 19.1131 -5.7616 16.9219ZM5.80472 44.3315C7.21435 43.7366 8.6696 43.4685 10.2118 43.625C11.7126 43.6836 12.6696 44.2024 13.0579 45.1225L14.4954 48.5292C16.6232 46.2474 17.3123 44.2729 16.5852 42.55L12.9501 33.9356C12.2892 32.3693 10.7733 31.5098 8.26315 31.3005C5.7613 31.1108 3.295 31.5518 0.847723 32.5845C-1.59956 33.6172 -3.63625 35.0764 -5.24584 37.0011C-6.84716 38.9453 -7.28907 40.631 -6.62813 42.1973L-2.993 50.8117C-2.33207 52.3779 -0.724371 53.291 1.8671 53.4198C4.439 53.557 6.8383 53.1211 9.10938 52.1628L11.0011 51.18L9.34052 47.2448L7.45705 48.2471C5.49922 49.0733 3.37617 49.5079 1.17751 49.49C1.09024 48.6273 1.53895 47.723 2.48231 46.6791C3.4061 45.6435 4.51255 44.8767 5.80472 44.3315ZM-4.10927 20.8376C-5.40739 21.3854 -6.43473 22.4264 -6.9653 23.7316C-7.49587 25.0369 -7.4862 26.4994 -6.93842 27.7976C-6.39064 29.0957 -5.34961 30.123 -4.04436 30.6536C-2.73912 31.1842 -1.27656 31.1745 0.0215568 30.6267C1.31967 30.0789 2.34702 29.0379 2.87759 27.7327C3.40816 26.4274 3.39848 24.9648 2.8507 23.6667C2.30292 22.3686 1.2619 21.3413 -0.0433501 20.8107C-1.3486 20.2801 -2.81115 20.2898 -4.10927 20.8376Z" fill="#061501" fill-opacity="0.5"/>
</g>
<rect x="0.762695" width="161.351" height="197.24" fill="#D9D9D9"/>
<g filter="url(#filter1_d_0_1)">
<path d="M117.226 85.3368L103.982 72.0935C102.254 70.4699 99.9889 69.5384 97.6184 69.476C95.2478 69.4136 92.9371 70.2248 91.1256 71.7552L47.6256 115.255C46.0633 116.831 45.0906 118.896 44.8706 121.103L42.7923 141.258C42.7272 141.966 42.819 142.68 43.0613 143.348C43.3036 144.017 43.6903 144.623 44.194 145.125C44.6456 145.573 45.1812 145.928 45.7701 146.168C46.359 146.409 46.9895 146.53 47.6256 146.527H48.0606L68.2156 144.69C70.4235 144.47 72.4885 143.497 74.064 141.935L117.564 98.4352C119.252 96.6515 120.165 94.2713 120.101 91.8161C120.038 89.3609 119.004 87.0309 117.226 85.3368ZM67.3456 135.023L52.8456 136.377L54.1506 121.877L81.459 94.9068L94.509 107.957L67.3456 135.023ZM100.792 101.48L87.839 88.5268L97.264 78.8602L110.459 92.0551L100.792 101.48Z" fill="black"/>
</g>
</g>
<defs>
<filter id="filter0_d_0_1" x="-51.6387" y="0" width="1283.36" height="428" filterUnits="userSpaceOnUse" color-interpolation-filters="sRGB">
<feFlood flood-opacity="0" result="BackgroundImageFix"/>
<feColorMatrix in="SourceAlpha" type="matrix" values="0 0 0 0 0 0 0 0 0 0 0 0 0 0 0 0 0 0 127 0" result="hardAlpha"/>
<feOffset dx="20" dy="10"/>
<feGaussianBlur stdDeviation="2"/>
<feComposite in2="hardAlpha" operator="out"/>
<feColorMatrix type="matrix" values="0 0 0 0 0 0 0 0 0 0 0 0 0 0 0 0 0 0 0.25 0"/>
<feBlend mode="normal" in2="BackgroundImageFix" result="effect1_dropShadow_0_1"/>
<feBlend mode="normal" in="SourceGraphic" in2="effect1_dropShadow_0_1" result="shape"/>
</filter>
<filter id="filter1_d_0_1" x="32.772" y="69.4727" width="117.333" height="137.054" filterUnits="userSpaceOnUse" color-interpolation-filters="sRGB">
<feFlood flood-opacity="0" result="BackgroundImageFix"/>
<feColorMatrix in="SourceAlpha" type="matrix" values="0 0 0 0 0 0 0 0 0 0 0 0 0 0 0 0 0 0 127 0" result="hardAlpha"/>
<feOffset dx="10" dy="40"/>
<feGaussianBlur stdDeviation="10"/>
<feComposite in2="hardAlpha" operator="out"/>
<feColorMatrix type="matrix" values="0 0 0 0 0 0 0 0 0 0 0 0 0 0 0 0 0 0 0.4 0"/>
<feBlend mode="normal" in2="BackgroundImageFix" result="effect1_dropShadow_0_1"/>
<feBlend mode="normal" in="SourceGraphic" in2="effect1_dropShadow_0_1" result="shape"/>
</filter>
<clipPath id="clip0_0_1">
<rect width="1440" height="8267" fill="white" transform="translate(-142 -1332)"/>
</clipPath>
<clipPath id="clip1_0_1">
<rect width="51" height="47" fill="white" transform="translate(137 121)"/>
</clipPath>
<clipPath id="clip2_0_1">
<rect width="51" height="51" fill="white" transform="translate(-23 11)"/>
</clipPath>
</defs>
</svg>
