<svg width="21" height="24" viewBox="0 0 21 24" fill="none" xmlns="http://www.w3.org/2000/svg">
<path d="M3.57975 2.25332C3.87707 1.85475 4.29835 1.69365 4.76206 1.73383C5.24635 1.77579 5.77122 2.04418 6.14177 2.52569L6.43633 2.90843C6.95198 3.57848 6.90695 4.69453 6.35561 5.82844C6.29109 5.82803 6.19954 5.82438 6.06147 5.81779C6.05203 5.81734 6.04185 5.81682 6.03096 5.81627C5.84502 5.80685 5.45486 5.78707 5.10035 5.90956C4.87756 5.98654 4.62907 6.12966 4.43513 6.38479C4.2439 6.63637 4.16493 6.91902 4.14333 7.17571L5.13981 7.25955L4.14333 7.17571C4.10648 7.61371 4.22972 8.12502 4.3494 8.53439C4.48108 8.9848 4.66306 9.48365 4.84739 9.9593C5.00571 10.3678 5.15904 10.745 5.29411 11.0772C5.49581 11.5733 5.65679 11.9692 5.73286 12.2201C6.0496 13.2646 6.55858 14.2502 7.22975 15.1224C7.8283 15.9001 8.58076 16.8308 9.43555 17.5059C9.50786 17.563 9.59585 17.6335 9.69643 17.714C10.0871 18.0268 10.6677 18.4917 11.2569 18.9173C11.6292 19.1862 12.0248 19.4542 12.3995 19.6698C12.7486 19.8707 13.1758 20.0837 13.5883 20.1566C14.1899 20.263 14.6773 20.0366 15.0108 19.7094C15.283 19.4425 15.4618 19.0983 15.566 18.8977L15.5681 18.8936C15.5843 18.8625 15.5995 18.8333 15.6138 18.8056C15.7183 18.6039 15.778 18.4885 15.8472 18.395C15.8534 18.3866 15.8589 18.3796 15.8636 18.3737C17.1526 18.0888 18.3001 18.3243 18.8332 19.0171L19.1278 19.3998C19.4983 19.8813 19.6234 20.4574 19.5399 20.9363C19.46 21.3949 19.1964 21.7609 18.735 21.9462C18.2274 22.1501 17.7015 22.3163 17.1608 22.4428C15.6605 22.794 14.0744 22.8335 12.492 22.5537C10.9095 22.2738 9.36257 21.68 7.9416 20.8022C6.52058 19.9243 5.25595 18.781 4.22178 17.4372C3.1876 16.0934 2.40634 14.5782 1.92162 12.9797C1.43693 11.3813 1.25908 9.73398 1.39382 8.1325C1.52854 6.53126 1.97294 5.00813 2.69657 3.64783C2.95736 3.15759 3.25268 2.69176 3.57975 2.25332Z" stroke="#323232" stroke-width="2"/>
</svg>
