<svg width="138" height="155" viewBox="0 0 138 155" fill="none" xmlns="http://www.w3.org/2000/svg">
<rect width="138" height="155" fill="#222121"/>
<g clip-path="url(#clip0_0_1)">
<rect width="1440" height="4107" transform="translate(-158 -2876)" fill="#F7F7F7"/>
<path d="M0 0H138V155H0V0Z" fill="#FEFEFE"/>
<path d="M44.448 123.451C20.6476 102.52 9.83116 71.0606 13.8204 45.3682C25.8512 65.8125 38.4863 66.1343 55.951 45.8842L63.4109 50.7688C54.3698 79.2584 51.3663 94.384 60.0682 122.726C47.9083 115.29 45.2971 98.3399 40.3247 91.417C40.2238 110.468 42.0675 116.134 44.3902 123.273L44.448 123.451Z" stroke="#245235" stroke-width="5"/>
<path d="M67.0761 122.836C73.4043 97.9368 81.0354 71.5823 47.7192 21.1367C67.6344 25.664 89.597 90.3377 116.585 42.4791C108.023 92.4396 104.673 102.787 84.1995 121.543C85.4585 109.679 86.2987 103.023 87.9219 91.1461C81.5937 104.889 75.4516 117.339 67.0761 122.836Z" stroke="#245235" stroke-width="5"/>
<path d="M38.7145 44.5241C38.7145 47.5322 36.1004 50.1976 32.5885 50.1976C29.0765 50.1976 26.4624 47.5322 26.4624 44.5241C26.4624 41.5159 29.0765 38.8506 32.5885 38.8506C36.1004 38.8506 38.7145 41.5159 38.7145 44.5241Z" stroke="#245235" stroke-width="5"/>
<path d="M100.316 42.7331C100.316 45.7412 97.702 48.4065 94.19 48.4065C90.678 48.4065 88.064 45.7412 88.064 42.7331C88.064 39.7249 90.678 37.0596 94.19 37.0596C97.702 37.0596 100.316 39.7249 100.316 42.7331Z" stroke="#245235" stroke-width="5"/>
</g>
<defs>
<clipPath id="clip0_0_1">
<rect width="1440" height="4107" fill="white" transform="translate(-158 -2876)"/>
</clipPath>
</defs>
</svg>
