<svg width="20" height="19" viewBox="0 0 20 19" fill="none" xmlns="http://www.w3.org/2000/svg">
<path d="M19.1668 2.38296C19.1668 2.38296 17.4852 3.32663 16.5502 3.59421C16.0483 3.04599 15.3813 2.65743 14.6394 2.48107C13.8974 2.30471 13.1164 2.34907 12.4019 2.60815C11.6874 2.86723 11.0739 3.32853 10.6443 3.92965C10.2148 4.53078 9.98991 5.24273 10.0002 5.96921V6.76088C8.53569 6.79695 7.08456 6.4884 5.776 5.86269C4.46745 5.23698 3.34209 4.31355 2.50016 3.17463C2.50016 3.17463 -0.83317 10.2996 6.66683 13.4663C4.9506 14.573 2.90613 15.1279 0.833496 15.0496C8.3335 19.008 17.5002 15.0496 17.5002 5.94546C17.5002 5.72538 17.4768 5.50529 17.4335 5.28838C18.2835 4.49196 19.1668 2.38296 19.1668 2.38296Z" stroke="#FF7B19" stroke-width="1.4375" stroke-linecap="round" stroke-linejoin="round"/>
</svg>
