<svg width="22" height="21" viewBox="0 0 22 21" fill="none" xmlns="http://www.w3.org/2000/svg">
<rect width="22" height="21" fill="#FE0808"/>
<g clip-path="url(#clip0_0_1)">
<rect width="1440" height="8315.55" transform="translate(-1186.37 -8232)" fill="#F7F7F7"/>
<rect width="1440" height="678" transform="translate(-1186.37 -594)" fill="#0C0C0C"/>
<circle cx="10.6328" cy="11" r="20" fill="#FF7B19"/>
<path d="M2.50781 19.1254L4.08906 15.4838C2.87932 13.7665 2.33787 11.6668 2.56631 9.57861C2.79476 7.49047 3.7774 5.55748 5.32982 4.14239C6.88225 2.72729 8.89774 1.92738 10.9981 1.89277C13.0984 1.85816 15.1391 2.59123 16.7373 3.95441C18.3355 5.31759 19.3813 7.21716 19.6784 9.29664C19.9756 11.3761 19.5036 13.4925 18.3511 15.2488C17.1986 17.005 15.4448 18.2802 13.4188 18.8352C11.3928 19.3901 9.234 19.1866 7.3474 18.2629L2.50781 19.1254Z" stroke="black" stroke-width="1.91667" stroke-linecap="round" stroke-linejoin="round"/>
<path d="M8.25781 8.58374C8.25781 8.71082 8.3083 8.8327 8.39816 8.92256C8.48802 9.01242 8.6099 9.06291 8.73698 9.06291C8.86406 9.06291 8.98594 9.01242 9.0758 8.92256C9.16566 8.8327 9.21615 8.71082 9.21615 8.58374V7.62541C9.21615 7.49832 9.16566 7.37645 9.0758 7.28658C8.98594 7.19672 8.86406 7.14624 8.73698 7.14624C8.6099 7.14624 8.48802 7.19672 8.39816 7.28658C8.3083 7.37645 8.25781 7.49832 8.25781 7.62541V8.58374ZM8.25781 8.58374C8.25781 9.85457 8.76265 11.0733 9.66126 11.972C10.5599 12.8706 11.7787 13.3754 13.0495 13.3754H14.0078C14.1349 13.3754 14.2568 13.3249 14.3466 13.2351C14.4365 13.1452 14.487 13.0233 14.487 12.8962C14.487 12.7692 14.4365 12.6473 14.3466 12.5574C14.2568 12.4676 14.1349 12.4171 14.0078 12.4171H13.0495C12.9224 12.4171 12.8005 12.4676 12.7107 12.5574C12.6208 12.6473 12.5703 12.7692 12.5703 12.8962C12.5703 13.0233 12.6208 13.1452 12.7107 13.2351C12.8005 13.3249 12.9224 13.3754 13.0495 13.3754" stroke="black" stroke-width="1.91667" stroke-linecap="round" stroke-linejoin="round"/>
</g>
<defs>
<clipPath id="clip0_0_1">
<rect width="1440" height="8315.55" fill="white" transform="translate(-1186.37 -8232)"/>
</clipPath>
</defs>
</svg>
