<svg width="18" height="18" viewBox="0 0 18 18" fill="none" xmlns="http://www.w3.org/2000/svg">
<path d="M1.60693 16.3929L2.96229 13.2715C1.92537 11.7996 1.46127 9.99979 1.65708 8.20996C1.85289 6.42013 2.69515 4.76327 4.0258 3.55034C5.35645 2.3374 7.08401 1.65176 8.88428 1.6221C10.6846 1.59243 12.4338 2.22078 13.8037 3.38922C15.1735 4.55765 16.0699 6.18586 16.3246 7.96827C16.5793 9.75068 16.1747 11.5648 15.1869 13.0701C14.199 14.5754 12.6958 15.6685 10.9592 16.1441C9.22268 16.6198 7.37223 16.4454 5.75515 15.6537L1.60693 16.3929Z" stroke="#FF7B19" stroke-width="1.91667" stroke-linecap="round" stroke-linejoin="round"/>
<path d="M6.53564 7.35714C6.53564 7.46607 6.57892 7.57054 6.65594 7.64756C6.73296 7.72459 6.83743 7.76786 6.94636 7.76786C7.05529 7.76786 7.15975 7.72459 7.23678 7.64756C7.3138 7.57054 7.35707 7.46607 7.35707 7.35714V6.53571C7.35707 6.42679 7.3138 6.32232 7.23678 6.2453C7.15975 6.16827 7.05529 6.125 6.94636 6.125C6.83743 6.125 6.73296 6.16827 6.65594 6.2453C6.57892 6.32232 6.53564 6.42679 6.53564 6.53571V7.35714ZM6.53564 7.35714C6.53564 8.44642 6.96836 9.49109 7.7386 10.2613C8.50884 11.0316 9.55351 11.4643 10.6428 11.4643H11.4642C11.5731 11.4643 11.6776 11.421 11.7546 11.344C11.8317 11.267 11.8749 11.1625 11.8749 11.0536C11.8749 10.9446 11.8317 10.8402 11.7546 10.7632C11.6776 10.6861 11.5731 10.6429 11.4642 10.6429H10.6428C10.5339 10.6429 10.4294 10.6861 10.3524 10.7632C10.2753 10.8402 10.2321 10.9446 10.2321 11.0536C10.2321 11.1625 10.2753 11.267 10.3524 11.344C10.4294 11.421 10.5339 11.4643 10.6428 11.4643" stroke="#FF7B19" stroke-width="1.91667" stroke-linecap="round" stroke-linejoin="round"/>
</svg>
