<svg width="14" height="24" viewBox="0 0 14 24" fill="none" xmlns="http://www.w3.org/2000/svg">
<circle opacity="0.8" cx="7.05664" cy="13.0312" r="6" stroke="#D9D9D9"/>
<path opacity="0.8" d="M7.13619 16.6676C6.52255 16.6676 5.99414 16.5227 5.55096 16.233C5.10778 15.9432 4.76687 15.544 4.52823 15.0355C4.2896 14.527 4.17028 13.946 4.17028 13.2926C4.17028 12.6278 4.29244 12.0412 4.53675 11.5327C4.78391 11.0213 5.12766 10.6222 5.568 10.3352C6.01119 10.0455 6.52823 9.90057 7.11914 9.90057C7.57937 9.90057 7.99414 9.9858 8.36346 10.1562C8.73278 10.3267 9.03533 10.5653 9.27113 10.8722C9.50692 11.179 9.65323 11.5369 9.71005 11.946H8.70437C8.62766 11.6477 8.45721 11.3835 8.193 11.1534C7.93164 10.9205 7.57937 10.804 7.13619 10.804C6.74414 10.804 6.40039 10.9062 6.10494 11.1108C5.81232 11.3125 5.58363 11.598 5.41886 11.9673C5.25692 12.3338 5.17596 12.7642 5.17596 13.2585C5.17596 13.7642 5.2555 14.2045 5.4146 14.5795C5.57653 14.9545 5.8038 15.2457 6.09641 15.4531C6.39187 15.6605 6.73846 15.7642 7.13619 15.7642C7.39755 15.7642 7.63477 15.7188 7.84783 15.6278C8.0609 15.5369 8.2413 15.4062 8.38903 15.2358C8.53675 15.0653 8.64187 14.8608 8.70437 14.6222H9.71005C9.65323 15.0085 9.51261 15.3565 9.28817 15.6662C9.06658 15.973 8.77255 16.2173 8.40607 16.3991C8.04244 16.5781 7.61914 16.6676 7.13619 16.6676Z" fill="#D9D9D9"/>
</svg>
