<svg width="162" height="198" viewBox="0 0 162 198" fill="none" xmlns="http://www.w3.org/2000/svg">
<rect width="162" height="198" fill="#FE0808"/>
<g clip-path="url(#clip0_0_1)">
<rect width="1440" height="8267" transform="translate(-143 -1864)" fill="#F7F7F7"/>
<g filter="url(#filter0_d_0_1)">
<rect x="-52.1479" width="1259.36" height="414" fill="#03544F"/>
</g>
<path d="M174.368 173.194C185.05 168.332 188.841 153.697 188.841 153.697C188.841 153.697 175.314 146.944 164.632 151.806C153.95 156.668 150.159 171.304 150.159 171.304C150.159 171.304 163.686 178.057 174.368 173.194Z" stroke="#323232" stroke-width="1.91667" stroke-linejoin="round"/>
<path d="M171.528 166.956C172.811 166.372 173.827 165.343 174.353 164.095C174.88 162.846 174.873 161.481 174.335 160.299C173.797 159.117 172.772 158.216 171.485 157.793C170.198 157.37 168.754 157.461 167.472 158.044C166.19 158.628 165.173 159.657 164.647 160.906C164.121 162.154 164.127 163.519 164.665 164.701C165.203 165.883 166.228 166.784 167.515 167.207C168.803 167.63 170.246 167.54 171.528 166.956Z" stroke="#323232" stroke-width="1.91667" stroke-linejoin="round"/>
<path d="M14.3678 63.1943C25.0496 58.3321 28.8406 43.6965 28.8406 43.6965C28.8406 43.6965 15.314 36.9436 4.63214 41.8058C-6.04969 46.668 -9.84066 61.3036 -9.84066 61.3036C-9.84066 61.3036 3.68598 68.0565 14.3678 63.1943Z" stroke="#323232" stroke-width="1.91667" stroke-linejoin="round"/>
<path d="M11.5284 56.9561C12.8108 56.3724 13.8269 55.3431 14.3533 54.0947C14.8797 52.8463 14.8732 51.4811 14.3353 50.2993C13.7974 49.1175 12.7721 48.216 11.4849 47.7931C10.1978 47.3702 8.75424 47.4605 7.47188 48.0442C6.18951 48.6279 5.17336 49.6572 4.64697 50.9056C4.12057 52.154 4.12705 53.5193 4.66498 54.701C5.20291 55.8828 6.22823 56.7843 7.51537 57.2072C8.80251 57.6301 10.246 57.5398 11.5284 56.9561Z" stroke="#323232" stroke-width="1.91667" stroke-linejoin="round"/>
<rect x="0.253418" width="161.351" height="197.24" fill="#D9D9D9"/>
<g filter="url(#filter1_d_0_1)">
<path d="M30.4834 91.5108C31.2583 90.7629 32.4862 90.7629 33.2611 91.5108L45.6658 103.483C46.9603 104.732 46.0759 106.922 44.2769 106.922H19.4676C17.6686 106.922 16.7842 104.732 18.0787 103.483L30.4834 91.5108Z" fill="black"/>
</g>
<g filter="url(#filter2_d_0_1)">
<path d="M122.443 91.5108C123.218 90.7629 124.446 90.7629 125.221 91.5108L137.626 103.483C138.92 104.732 138.036 106.922 136.237 106.922H111.428C109.629 106.922 108.744 104.732 110.039 103.483L122.443 91.5108Z" fill="black"/>
</g>
<g filter="url(#filter3_d_0_1)">
<path d="M76.216 79.1749C76.9909 78.427 78.2188 78.427 78.9937 79.1749L103.81 103.125C105.104 104.374 104.22 106.564 102.421 106.564H52.789C50.99 106.564 50.1056 104.374 51.4001 103.125L76.216 79.1749Z" fill="black"/>
</g>
<g filter="url(#filter4_d_0_1)">
<path d="M47.0877 127.007V112.445C47.0877 110.788 45.7445 109.445 44.0877 109.445H20.4805C18.8236 109.445 17.4805 110.788 17.4805 112.445V127.007C17.4805 128.664 18.8236 130.007 20.4805 130.007H44.0877C45.7445 130.007 47.0877 128.664 47.0877 127.007Z" fill="black"/>
<path d="M45.5877 112.445V127.007C45.5877 127.836 44.9161 128.507 44.0877 128.507H20.4805C19.652 128.507 18.9805 127.836 18.9805 127.007V112.445C18.9805 111.616 19.652 110.945 20.4805 110.945H44.0877C44.9161 110.945 45.5877 111.616 45.5877 112.445Z" stroke="black" stroke-width="3"/>
</g>
<g filter="url(#filter5_d_0_1)">
<path d="M139.048 127.007V112.445C139.048 110.788 137.704 109.445 136.048 109.445H112.44C110.784 109.445 109.44 110.788 109.44 112.445V127.007C109.44 128.664 110.784 130.007 112.44 130.007H136.048C137.704 130.007 139.048 128.664 139.048 127.007Z" fill="black"/>
<path d="M137.548 112.445V127.007C137.548 127.836 136.876 128.507 136.048 128.507H112.44C111.612 128.507 110.94 127.836 110.94 127.007V112.445C110.94 111.616 111.612 110.945 112.44 110.945H136.048C136.876 110.945 137.548 111.616 137.548 112.445Z" stroke="black" stroke-width="3"/>
</g>
<g filter="url(#filter6_d_0_1)">
<path d="M103.698 143.156V113.89C103.698 112.233 102.355 110.89 100.698 110.89H55.9199C54.2631 110.89 52.9199 112.233 52.9199 113.89V143.156C52.9199 144.813 54.2631 146.156 55.9199 146.156H100.698C102.355 146.156 103.698 144.813 103.698 143.156Z" fill="black"/>
<path d="M102.198 113.89V143.156C102.198 143.984 101.526 144.656 100.698 144.656H55.9199C55.0915 144.656 54.4199 143.984 54.4199 143.156V113.89C54.4199 113.062 55.0915 112.39 55.9199 112.39H100.698C101.526 112.39 102.198 113.062 102.198 113.89Z" stroke="black" stroke-width="3"/>
</g>
</g>
<defs>
<filter id="filter0_d_0_1" x="-52.1479" y="0" width="1283.36" height="428" filterUnits="userSpaceOnUse" color-interpolation-filters="sRGB">
<feFlood flood-opacity="0" result="BackgroundImageFix"/>
<feColorMatrix in="SourceAlpha" type="matrix" values="0 0 0 0 0 0 0 0 0 0 0 0 0 0 0 0 0 0 127 0" result="hardAlpha"/>
<feOffset dx="20" dy="10"/>
<feGaussianBlur stdDeviation="2"/>
<feComposite in2="hardAlpha" operator="out"/>
<feColorMatrix type="matrix" values="0 0 0 0 0 0 0 0 0 0 0 0 0 0 0 0 0 0 0.25 0"/>
<feBlend mode="normal" in2="BackgroundImageFix" result="effect1_dropShadow_0_1"/>
<feBlend mode="normal" in="SourceGraphic" in2="effect1_dropShadow_0_1" result="shape"/>
</filter>
<filter id="filter1_d_0_1" x="2.46338" y="90.9497" width="68.8174" height="75.9717" filterUnits="userSpaceOnUse" color-interpolation-filters="sRGB">
<feFlood flood-opacity="0" result="BackgroundImageFix"/>
<feColorMatrix in="SourceAlpha" type="matrix" values="0 0 0 0 0 0 0 0 0 0 0 0 0 0 0 0 0 0 127 0" result="hardAlpha"/>
<feOffset dx="5" dy="40"/>
<feGaussianBlur stdDeviation="10"/>
<feComposite in2="hardAlpha" operator="out"/>
<feColorMatrix type="matrix" values="0 0 0 0 0 0 0 0 0 0 0 0 0 0 0 0 0 0 0.4 0"/>
<feBlend mode="normal" in2="BackgroundImageFix" result="effect1_dropShadow_0_1"/>
<feBlend mode="normal" in="SourceGraphic" in2="effect1_dropShadow_0_1" result="shape"/>
</filter>
<filter id="filter2_d_0_1" x="94.4233" y="90.9497" width="68.8174" height="75.9717" filterUnits="userSpaceOnUse" color-interpolation-filters="sRGB">
<feFlood flood-opacity="0" result="BackgroundImageFix"/>
<feColorMatrix in="SourceAlpha" type="matrix" values="0 0 0 0 0 0 0 0 0 0 0 0 0 0 0 0 0 0 127 0" result="hardAlpha"/>
<feOffset dx="5" dy="40"/>
<feGaussianBlur stdDeviation="10"/>
<feComposite in2="hardAlpha" operator="out"/>
<feColorMatrix type="matrix" values="0 0 0 0 0 0 0 0 0 0 0 0 0 0 0 0 0 0 0.4 0"/>
<feBlend mode="normal" in2="BackgroundImageFix" result="effect1_dropShadow_0_1"/>
<feBlend mode="normal" in="SourceGraphic" in2="effect1_dropShadow_0_1" result="shape"/>
</filter>
<filter id="filter3_d_0_1" x="35.7852" y="78.6138" width="93.6396" height="87.9497" filterUnits="userSpaceOnUse" color-interpolation-filters="sRGB">
<feFlood flood-opacity="0" result="BackgroundImageFix"/>
<feColorMatrix in="SourceAlpha" type="matrix" values="0 0 0 0 0 0 0 0 0 0 0 0 0 0 0 0 0 0 127 0" result="hardAlpha"/>
<feOffset dx="5" dy="40"/>
<feGaussianBlur stdDeviation="10"/>
<feComposite in2="hardAlpha" operator="out"/>
<feColorMatrix type="matrix" values="0 0 0 0 0 0 0 0 0 0 0 0 0 0 0 0 0 0 0.4 0"/>
<feBlend mode="normal" in2="BackgroundImageFix" result="effect1_dropShadow_0_1"/>
<feBlend mode="normal" in="SourceGraphic" in2="effect1_dropShadow_0_1" result="shape"/>
</filter>
<filter id="filter4_d_0_1" x="2.48047" y="109.445" width="69.6074" height="80.5625" filterUnits="userSpaceOnUse" color-interpolation-filters="sRGB">
<feFlood flood-opacity="0" result="BackgroundImageFix"/>
<feColorMatrix in="SourceAlpha" type="matrix" values="0 0 0 0 0 0 0 0 0 0 0 0 0 0 0 0 0 0 127 0" result="hardAlpha"/>
<feOffset dx="5" dy="40"/>
<feGaussianBlur stdDeviation="10"/>
<feComposite in2="hardAlpha" operator="out"/>
<feColorMatrix type="matrix" values="0 0 0 0 0 0 0 0 0 0 0 0 0 0 0 0 0 0 0.4 0"/>
<feBlend mode="normal" in2="BackgroundImageFix" result="effect1_dropShadow_0_1"/>
<feBlend mode="normal" in="SourceGraphic" in2="effect1_dropShadow_0_1" result="shape"/>
</filter>
<filter id="filter5_d_0_1" x="94.4404" y="109.445" width="69.6074" height="80.5625" filterUnits="userSpaceOnUse" color-interpolation-filters="sRGB">
<feFlood flood-opacity="0" result="BackgroundImageFix"/>
<feColorMatrix in="SourceAlpha" type="matrix" values="0 0 0 0 0 0 0 0 0 0 0 0 0 0 0 0 0 0 127 0" result="hardAlpha"/>
<feOffset dx="5" dy="40"/>
<feGaussianBlur stdDeviation="10"/>
<feComposite in2="hardAlpha" operator="out"/>
<feColorMatrix type="matrix" values="0 0 0 0 0 0 0 0 0 0 0 0 0 0 0 0 0 0 0.4 0"/>
<feBlend mode="normal" in2="BackgroundImageFix" result="effect1_dropShadow_0_1"/>
<feBlend mode="normal" in="SourceGraphic" in2="effect1_dropShadow_0_1" result="shape"/>
</filter>
<filter id="filter6_d_0_1" x="37.9199" y="110.89" width="90.7778" height="95.2661" filterUnits="userSpaceOnUse" color-interpolation-filters="sRGB">
<feFlood flood-opacity="0" result="BackgroundImageFix"/>
<feColorMatrix in="SourceAlpha" type="matrix" values="0 0 0 0 0 0 0 0 0 0 0 0 0 0 0 0 0 0 127 0" result="hardAlpha"/>
<feOffset dx="5" dy="40"/>
<feGaussianBlur stdDeviation="10"/>
<feComposite in2="hardAlpha" operator="out"/>
<feColorMatrix type="matrix" values="0 0 0 0 0 0 0 0 0 0 0 0 0 0 0 0 0 0 0.4 0"/>
<feBlend mode="normal" in2="BackgroundImageFix" result="effect1_dropShadow_0_1"/>
<feBlend mode="normal" in="SourceGraphic" in2="effect1_dropShadow_0_1" result="shape"/>
</filter>
<clipPath id="clip0_0_1">
<rect width="1440" height="8267" fill="white" transform="translate(-143 -1864)"/>
</clipPath>
</defs>
</svg>
