<svg width="235" height="69" viewBox="0 0 235 69" fill="none" xmlns="http://www.w3.org/2000/svg">
<path d="M29.3061 67.985C20.4995 58.8554 16.4972 45.1337 17.9733 33.9272C22.4249 42.8445 27.1002 42.9849 33.5625 34.1523L36.3228 36.2829C32.9774 48.7093 31.8661 55.3067 35.086 67.6688C30.5865 64.4252 29.6203 57.0322 27.7804 54.0126C27.7431 62.322 28.4253 64.7937 29.2848 67.9076L29.3061 67.985Z" fill="#01B075"/>
<path d="M44.4562 51.0897C46.6477 53.3241 47.2883 57.8898 48.1713 67.4955C52.1134 59.9294 53.3341 46.8234 51.6913 35.736C48.2294 21.2935 39.3147 21.3313 33.541 34.1797L36.2808 36.2868C35.631 46.1554 38.3382 64.7838 39.9083 67.9995C41.1499 58.832 42.163 55.0256 44.4562 51.0897Z" fill="#245235"/>
<path d="M53.679 67.7167C56.0206 56.8562 58.8443 45.361 46.5166 23.3579C53.8856 25.3326 62.0123 53.5416 71.9984 32.6669C68.8304 54.4584 67.5907 58.9719 60.015 67.1525C60.4809 61.9777 60.7918 59.0746 61.3924 53.8943C59.0509 59.8887 56.7782 65.3189 53.679 67.7167Z" fill="#FF7B19"/>
<path d="M46.8591 0.34375C32.0915 8.36971 2.24082 24.7153 0.979125 25.8898L0 31.4352L46.8591 3.95212L92.5819 27.9222L92.3807 23.4673L46.8591 0.34375Z" fill="#01B075"/>
<ellipse cx="24.9179" cy="34.0778" rx="3.19182" ry="3.04609" fill="#01B075"/>
<ellipse cx="63.7118" cy="33.4104" rx="3.19182" ry="3.04609" fill="#FF7B19"/>
<ellipse cx="44.6228" cy="18.0696" rx="4.2454" ry="4.10276" fill="#245235"/>
<path d="M110.255 35.3872V17.9327H116.8C118.141 17.9327 119.266 18.1656 120.175 18.6315C121.09 19.0974 121.78 19.7508 122.246 20.5918C122.718 21.427 122.954 22.4014 122.954 23.515C122.954 24.6344 122.715 25.606 122.238 26.4298C121.766 27.248 121.07 27.8815 120.15 28.3304C119.229 28.7736 118.099 28.9952 116.758 28.9952H112.096V26.3702H116.331C117.116 26.3702 117.758 26.2622 118.258 26.0463C118.758 25.8247 119.127 25.5037 119.366 25.0832C119.61 24.6571 119.732 24.1344 119.732 23.515C119.732 22.8957 119.61 22.3673 119.366 21.9298C119.121 21.4866 118.749 21.1514 118.249 20.9241C117.749 20.6912 117.104 20.5747 116.314 20.5747H113.417V35.3872H110.255ZM119.272 27.4781L123.593 35.3872H120.064L115.82 27.4781H119.272ZM131.576 35.6429C130.263 35.6429 129.13 35.3702 128.175 34.8247C127.226 34.2736 126.496 33.4952 125.985 32.4895C125.473 31.4781 125.218 30.2878 125.218 28.9185C125.218 27.5719 125.473 26.39 125.985 25.373C126.502 24.3503 127.223 23.5548 128.15 22.9866C129.076 22.4128 130.164 22.1258 131.414 22.1258C132.221 22.1258 132.982 22.2565 133.698 22.5179C134.42 22.7736 135.056 23.1713 135.607 23.7111C136.164 24.2508 136.601 24.9383 136.92 25.7736C137.238 26.6031 137.397 27.5918 137.397 28.7395V29.6855H126.667V27.606H134.439C134.434 27.015 134.306 26.4895 134.056 26.0293C133.806 25.5633 133.456 25.1969 133.008 24.9298C132.564 24.6628 132.047 24.5293 131.456 24.5293C130.826 24.5293 130.272 24.6827 129.795 24.9895C129.317 25.2906 128.945 25.6883 128.678 26.1827C128.417 26.6713 128.283 27.2082 128.277 27.7935V29.6088C128.277 30.3702 128.417 31.0236 128.695 31.569C128.973 32.1088 129.363 32.5236 129.863 32.8133C130.363 33.0974 130.948 33.2395 131.618 33.2395C132.067 33.2395 132.473 33.177 132.837 33.052C133.201 32.9213 133.516 32.731 133.783 32.481C134.05 32.231 134.252 31.9213 134.388 31.552L137.269 31.8758C137.087 32.6372 136.741 33.302 136.229 33.8702C135.723 34.4327 135.076 34.8702 134.286 35.1827C133.496 35.4895 132.593 35.6429 131.576 35.6429ZM144.014 35.6514C143.184 35.6514 142.437 35.5037 141.772 35.2082C141.113 34.9071 140.591 34.4639 140.204 33.8787C139.824 33.2935 139.633 32.5719 139.633 31.7139C139.633 30.9753 139.77 30.3645 140.042 29.8815C140.315 29.3986 140.687 29.0122 141.159 28.7224C141.63 28.4327 142.162 28.2139 142.753 28.0662C143.349 27.9128 143.966 27.802 144.602 27.7338C145.369 27.6543 145.991 27.5832 146.468 27.5207C146.946 27.4525 147.292 27.3503 147.508 27.2139C147.73 27.0719 147.841 26.8531 147.841 26.5577V26.5065C147.841 25.8645 147.65 25.3673 147.27 25.015C146.889 24.6628 146.341 24.4866 145.625 24.4866C144.869 24.4866 144.27 24.6514 143.826 24.981C143.389 25.3105 143.093 25.6997 142.94 26.1486L140.059 25.7395C140.287 24.944 140.662 24.2793 141.184 23.7452C141.707 23.2054 142.346 22.802 143.102 22.5349C143.858 22.2622 144.693 22.1258 145.608 22.1258C146.238 22.1258 146.866 22.1997 147.491 22.3474C148.116 22.4952 148.687 22.7395 149.204 23.0804C149.721 23.4156 150.136 23.873 150.449 24.4525C150.767 25.0321 150.926 25.7565 150.926 26.6258V35.3872H147.96V33.5889H147.858C147.67 33.9525 147.406 34.2935 147.065 34.6116C146.73 34.9241 146.307 35.177 145.795 35.3702C145.289 35.5577 144.696 35.6514 144.014 35.6514ZM144.815 33.3844C145.434 33.3844 145.971 33.2622 146.426 33.0179C146.88 32.7679 147.23 32.4383 147.474 32.0293C147.724 31.6202 147.849 31.1741 147.849 30.6912V29.1486C147.753 29.2281 147.588 29.302 147.355 29.3702C147.128 29.4383 146.872 29.498 146.588 29.5491C146.304 29.6003 146.022 29.6457 145.744 29.6855C145.466 29.7253 145.224 29.7594 145.02 29.7878C144.559 29.8503 144.147 29.9525 143.784 30.0946C143.42 30.2366 143.133 30.4355 142.923 30.6912C142.713 30.9412 142.608 31.265 142.608 31.6628C142.608 32.231 142.815 32.6599 143.23 32.9497C143.645 33.2395 144.173 33.3844 144.815 33.3844ZM157.353 17.9327V35.3872H154.268V17.9327H157.353ZM167.095 35.3872V17.9327H170.257V25.3219H178.345V17.9327H181.516V35.3872H178.345V27.9724H170.257V35.3872H167.095ZM190.769 35.6429C189.49 35.6429 188.382 35.3616 187.445 34.7991C186.507 34.2366 185.78 33.4497 185.263 32.4383C184.752 31.427 184.496 30.2452 184.496 28.8929C184.496 27.5406 184.752 26.356 185.263 25.3389C185.78 24.3219 186.507 23.5321 187.445 22.9696C188.382 22.4071 189.49 22.1258 190.769 22.1258C192.047 22.1258 193.155 22.4071 194.093 22.9696C195.03 23.5321 195.754 24.3219 196.266 25.3389C196.783 26.356 197.041 27.5406 197.041 28.8929C197.041 30.2452 196.783 31.427 196.266 32.4383C195.754 33.4497 195.03 34.2366 194.093 34.7991C193.155 35.3616 192.047 35.6429 190.769 35.6429ZM190.786 33.1713C191.479 33.1713 192.058 32.981 192.524 32.6003C192.99 32.2139 193.337 31.6969 193.564 31.0491C193.797 30.4014 193.914 29.6798 193.914 28.8844C193.914 28.0832 193.797 27.3588 193.564 26.7111C193.337 26.0577 192.99 25.5378 192.524 25.1514C192.058 24.765 191.479 24.5719 190.786 24.5719C190.075 24.5719 189.485 24.765 189.013 25.1514C188.547 25.5378 188.198 26.0577 187.965 26.7111C187.737 27.3588 187.624 28.0832 187.624 28.8844C187.624 29.6798 187.737 30.4014 187.965 31.0491C188.198 31.6969 188.547 32.2139 189.013 32.6003C189.485 32.981 190.075 33.1713 190.786 33.1713ZM199.9 40.2963V22.2963H202.934V24.4611H203.113C203.272 24.1429 203.497 23.8048 203.786 23.4469C204.076 23.0832 204.468 22.7736 204.962 22.5179C205.457 22.2565 206.087 22.1258 206.855 22.1258C207.866 22.1258 208.778 22.3844 209.59 22.9014C210.409 23.4128 211.056 24.1713 211.534 25.177C212.016 26.177 212.258 27.4043 212.258 28.8588C212.258 30.2963 212.022 31.5179 211.551 32.5236C211.079 33.5293 210.437 34.2963 209.624 34.8247C208.812 35.3531 207.891 35.6173 206.863 35.6173C206.113 35.6173 205.491 35.4923 204.997 35.2423C204.502 34.9923 204.105 34.6912 203.803 34.3389C203.508 33.981 203.278 33.6429 203.113 33.3247H202.985V40.2963H199.9ZM202.926 28.8418C202.926 29.6883 203.045 30.4298 203.284 31.0662C203.528 31.7025 203.877 32.1997 204.332 32.5577C204.792 32.9099 205.349 33.0861 206.002 33.0861C206.684 33.0861 207.255 32.9043 207.715 32.5406C208.176 32.1713 208.522 31.6685 208.755 31.0321C208.994 30.39 209.113 29.6599 209.113 28.8418C209.113 28.0293 208.997 27.3077 208.764 26.677C208.531 26.0463 208.184 25.552 207.724 25.194C207.264 24.8361 206.69 24.6571 206.002 24.6571C205.343 24.6571 204.784 24.8304 204.323 25.177C203.863 25.5236 203.514 26.0094 203.275 26.6344C203.042 27.2594 202.926 27.9952 202.926 28.8418ZM220.935 35.6429C219.623 35.6429 218.489 35.3702 217.535 34.8247C216.586 34.2736 215.856 33.4952 215.345 32.4895C214.833 31.4781 214.577 30.2878 214.577 28.9185C214.577 27.5719 214.833 26.39 215.345 25.373C215.862 24.3503 216.583 23.5548 217.509 22.9866C218.435 22.4128 219.524 22.1258 220.774 22.1258C221.58 22.1258 222.342 22.2565 223.058 22.5179C223.779 22.7736 224.416 23.1713 224.967 23.7111C225.524 24.2508 225.961 24.9383 226.279 25.7736C226.597 26.6031 226.756 27.5918 226.756 28.7395V29.6855H216.026V27.606H223.799C223.793 27.015 223.666 26.4895 223.416 26.0293C223.166 25.5633 222.816 25.1969 222.367 24.9298C221.924 24.6628 221.407 24.5293 220.816 24.5293C220.185 24.5293 219.631 24.6827 219.154 24.9895C218.677 25.2906 218.305 25.6883 218.038 26.1827C217.776 26.6713 217.643 27.2082 217.637 27.7935V29.6088C217.637 30.3702 217.776 31.0236 218.055 31.569C218.333 32.1088 218.722 32.5236 219.222 32.8133C219.722 33.0974 220.308 33.2395 220.978 33.2395C221.427 33.2395 221.833 33.177 222.197 33.052C222.56 32.9213 222.876 32.731 223.143 32.481C223.41 32.231 223.612 31.9213 223.748 31.552L226.629 31.8758C226.447 32.6372 226.1 33.302 225.589 33.8702C225.083 34.4327 224.435 34.8702 223.646 35.1827C222.856 35.4895 221.952 35.6429 220.935 35.6429Z" fill="#245235"/>
<path d="M113.417 45.9327V63.3872H110.255V45.9327H113.417ZM120.03 55.7168V63.3872H116.944V50.2963H119.893V52.5207H120.047C120.348 51.7878 120.828 51.2054 121.487 50.7736C122.152 50.3418 122.973 50.1258 123.95 50.1258C124.853 50.1258 125.64 50.319 126.311 50.7054C126.987 51.0918 127.51 51.6514 127.879 52.3844C128.254 53.1173 128.439 54.0065 128.433 55.052V63.3872H125.348V55.5293C125.348 54.6543 125.121 53.9696 124.666 53.4753C124.217 52.981 123.595 52.7338 122.799 52.7338C122.26 52.7338 121.78 52.8531 121.359 53.0918C120.944 53.3247 120.618 53.6628 120.379 54.106C120.146 54.5491 120.03 55.0861 120.03 55.7168ZM131.809 63.3872V50.2963H134.895V63.3872H131.809ZM133.361 48.4383C132.872 48.4383 132.451 48.2764 132.099 47.9525C131.747 47.623 131.571 47.2281 131.571 46.7679C131.571 46.302 131.747 45.9071 132.099 45.5832C132.451 45.2537 132.872 45.0889 133.361 45.0889C133.855 45.0889 134.275 45.2537 134.622 45.5832C134.974 45.9071 135.15 46.302 135.15 46.7679C135.15 47.2281 134.974 47.623 134.622 47.9525C134.275 48.2764 133.855 48.4383 133.361 48.4383ZM144.844 50.2963V52.6827H137.319V50.2963H144.844ZM139.176 47.1599H142.262V59.4497C142.262 59.8645 142.324 60.1827 142.449 60.4043C142.58 60.6202 142.75 60.7679 142.961 60.8474C143.171 60.927 143.404 60.9668 143.659 60.9668C143.853 60.9668 144.029 60.9525 144.188 60.9241C144.353 60.8957 144.478 60.8702 144.563 60.8474L145.083 63.2594C144.918 63.3162 144.682 63.3787 144.375 63.4469C144.074 63.515 143.705 63.5548 143.267 63.5662C142.495 63.5889 141.799 63.4724 141.179 63.2168C140.56 62.9554 140.069 62.552 139.705 62.0065C139.347 61.4611 139.171 60.7793 139.176 59.9611V47.1599ZM147.664 63.3872V50.2963H150.75V63.3872H147.664ZM149.216 48.4383C148.727 48.4383 148.306 48.2764 147.954 47.9525C147.602 47.623 147.426 47.2281 147.426 46.7679C147.426 46.302 147.602 45.9071 147.954 45.5832C148.306 45.2537 148.727 45.0889 149.216 45.0889C149.71 45.0889 150.13 45.2537 150.477 45.5832C150.829 45.9071 151.005 46.302 151.005 46.7679C151.005 47.2281 150.829 47.623 150.477 47.9525C150.13 48.2764 149.71 48.4383 149.216 48.4383ZM157.929 63.6514C157.1 63.6514 156.353 63.5037 155.688 63.2082C155.029 62.9071 154.506 62.4639 154.12 61.8787C153.739 61.2935 153.549 60.5719 153.549 59.7139C153.549 58.9753 153.685 58.3645 153.958 57.8815C154.23 57.3986 154.603 57.0122 155.074 56.7224C155.546 56.4327 156.077 56.2139 156.668 56.0662C157.264 55.9128 157.881 55.802 158.517 55.7338C159.284 55.6543 159.906 55.5832 160.384 55.5207C160.861 55.4525 161.208 55.3503 161.424 55.2139C161.645 55.0719 161.756 54.8531 161.756 54.5577V54.5065C161.756 53.8645 161.566 53.3673 161.185 53.015C160.804 52.6628 160.256 52.4866 159.54 52.4866C158.784 52.4866 158.185 52.6514 157.742 52.981C157.304 53.3105 157.009 53.6997 156.855 54.1486L153.975 53.7395C154.202 52.944 154.577 52.2793 155.1 51.7452C155.622 51.2054 156.262 50.802 157.017 50.5349C157.773 50.2622 158.608 50.1258 159.523 50.1258C160.154 50.1258 160.781 50.1997 161.406 50.3474C162.031 50.4952 162.603 50.7395 163.12 51.0804C163.637 51.4156 164.051 51.873 164.364 52.4525C164.682 53.0321 164.841 53.7565 164.841 54.6258V63.3872H161.875V61.5889H161.773C161.585 61.9525 161.321 62.2935 160.98 62.6116C160.645 62.9241 160.222 63.177 159.71 63.3702C159.205 63.5577 158.611 63.6514 157.929 63.6514ZM158.73 61.3844C159.35 61.3844 159.887 61.2622 160.341 61.0179C160.796 60.7679 161.145 60.4383 161.389 60.0293C161.639 59.6202 161.764 59.1741 161.764 58.6912V57.1486C161.668 57.2281 161.503 57.302 161.27 57.3702C161.043 57.4383 160.787 57.498 160.503 57.5491C160.219 57.6003 159.938 57.6457 159.659 57.6855C159.381 57.7253 159.139 57.7594 158.935 57.7878C158.475 57.8503 158.063 57.9525 157.699 58.0946C157.335 58.2366 157.049 58.4355 156.838 58.6912C156.628 58.9412 156.523 59.265 156.523 59.6628C156.523 60.231 156.73 60.6599 157.145 60.9497C157.56 61.2395 158.088 61.3844 158.73 61.3844ZM174.72 50.2963V52.6827H167.195V50.2963H174.72ZM169.053 47.1599H172.138V59.4497C172.138 59.8645 172.2 60.1827 172.325 60.4043C172.456 60.6202 172.627 60.7679 172.837 60.8474C173.047 60.927 173.28 60.9668 173.536 60.9668C173.729 60.9668 173.905 60.9525 174.064 60.9241C174.229 60.8957 174.354 60.8702 174.439 60.8474L174.959 63.2594C174.794 63.3162 174.558 63.3787 174.252 63.4469C173.95 63.515 173.581 63.5548 173.144 63.5662C172.371 63.5889 171.675 63.4724 171.056 63.2168C170.436 62.9554 169.945 62.552 169.581 62.0065C169.223 61.4611 169.047 60.7793 169.053 59.9611V47.1599ZM177.541 63.3872V50.2963H180.626V63.3872H177.541ZM179.092 48.4383C178.603 48.4383 178.183 48.2764 177.83 47.9525C177.478 47.623 177.302 47.2281 177.302 46.7679C177.302 46.302 177.478 45.9071 177.83 45.5832C178.183 45.2537 178.603 45.0889 179.092 45.0889C179.586 45.0889 180.007 45.2537 180.353 45.5832C180.705 45.9071 180.882 46.302 180.882 46.7679C180.882 47.2281 180.705 47.623 180.353 47.9525C180.007 48.2764 179.586 48.4383 179.092 48.4383ZM195.732 50.2963L191.07 63.3872H187.661L182.999 50.2963H186.288L189.297 60.0207H189.433L192.45 50.2963H195.732ZM203.457 63.6429C202.144 63.6429 201.011 63.3702 200.056 62.8247C199.107 62.2736 198.377 61.4952 197.866 60.4895C197.354 59.4781 197.099 58.2878 197.099 56.9185C197.099 55.5719 197.354 54.39 197.866 53.373C198.383 52.3503 199.104 51.5548 200.031 50.9866C200.957 50.4128 202.045 50.1258 203.295 50.1258C204.102 50.1258 204.863 50.2565 205.579 50.5179C206.3 50.7736 206.937 51.1713 207.488 51.7111C208.045 52.2508 208.482 52.9383 208.8 53.7736C209.119 54.6031 209.278 55.5918 209.278 56.7395V57.6855H198.548V55.606H206.32C206.315 55.015 206.187 54.4895 205.937 54.0293C205.687 53.5633 205.337 53.1969 204.889 52.9298C204.445 52.6628 203.928 52.5293 203.337 52.5293C202.707 52.5293 202.153 52.6827 201.675 52.9895C201.198 53.2906 200.826 53.6883 200.559 54.1827C200.298 54.6713 200.164 55.2082 200.158 55.7935V57.6088C200.158 58.3702 200.298 59.0236 200.576 59.569C200.854 60.1088 201.244 60.5236 201.744 60.8133C202.244 61.0974 202.829 61.2395 203.499 61.2395C203.948 61.2395 204.354 61.177 204.718 61.052C205.082 60.9213 205.397 60.731 205.664 60.481C205.931 60.231 206.133 59.9213 206.269 59.552L209.15 59.8758C208.968 60.6372 208.621 61.302 208.11 61.8702C207.604 62.4327 206.957 62.8702 206.167 63.1827C205.377 63.4895 204.474 63.6429 203.457 63.6429Z" fill="#FF7B19"/>
</svg>
